<svg width="1631" height="500" viewBox="0 0 1631 500" fill="none" xmlns="http://www.w3.org/2000/svg">
<path d="M11.2149 0L222.096 365.254L214.207 377.492L0 6.47493L11.2149 0Z" fill="#BCA77E"/>
<path d="M342.262 136.824L212.56 355.574L216.111 363.879L221.846 365.658L353.476 143.299L342.262 136.824Z" fill="#BCA77E"/>
<path d="M285.738 52.2865L42.7012 487.412L27.56 487.961L274.432 45.9717L285.738 52.2865Z" fill="#8C6D2A"/>
<path d="M350.887 485.817L28.3395 486.558L21.1406 499.56L350.887 498.767V485.817Z" fill="#8C6D2A"/>
<rect x="201.133" y="402.871" width="204.766" height="13.0068" fill="#8C6D2A"/>
<rect x="176.739" y="447.38" width="204.766" height="13.0068" fill="#8C6D2A"/>
<path d="M620.608 93.6558H515.107V170.696H614.065V195.231H515.107V283.231H620.608V308.093H487.3V68.957H620.608V93.6558Z" fill="#EAEAEA"/>
<path d="M744.102 216.332L809.692 308.093H778.942L728.726 235.469L678.02 308.093H647.27L712.86 216.332L650.541 128.823H681.455L728.726 197.521L775.834 128.823H806.421L744.102 216.332Z" fill="#EAEAEA"/>
<path d="M852.056 141.254C870.812 131.004 890.985 125.879 912.576 125.879C934.167 125.879 950.033 130.677 960.175 140.273C970.425 149.759 975.55 164.917 975.55 185.744V308.093H955.595L950.197 282.576H948.888C939.947 293.808 931.005 301.441 922.063 305.476C913.231 309.402 902.163 311.364 888.859 311.364C871.085 311.364 857.127 306.784 846.986 297.625C836.845 288.356 831.774 275.325 831.774 258.532C831.774 222.438 860.78 203.464 918.792 201.61L949.216 200.629V189.506C949.216 175.331 946.162 164.971 940.056 158.429C934.058 151.777 923.917 148.451 909.632 148.451C895.347 148.451 878.936 152.976 860.398 162.027L852.056 141.254ZM860.398 258.859C860.398 268.564 863.342 276.034 869.231 281.268C875.119 286.393 883.461 288.956 894.257 288.956C911.159 288.956 924.408 284.321 934.004 275.052C943.709 265.674 948.561 252.698 948.561 236.123V219.93L921.409 221.075C899.818 221.838 884.225 225.219 874.629 231.216C865.142 237.105 860.398 246.319 860.398 258.859Z" fill="#EAEAEA"/>
<path d="M1103.46 311.364C1077.51 311.364 1057.39 303.404 1043.1 287.484C1028.93 271.563 1021.84 248.772 1021.84 219.112C1021.84 189.452 1029.04 166.443 1043.43 150.087C1057.93 133.73 1078.54 125.551 1105.26 125.551C1113.55 125.551 1121.94 126.478 1130.45 128.332C1139.06 130.077 1146.04 132.258 1151.39 134.875L1143.04 157.938C1136.94 155.539 1130.5 153.576 1123.74 152.049C1116.98 150.523 1110.6 149.759 1104.6 149.759C1068.18 149.759 1049.97 172.932 1049.97 219.276C1049.97 241.412 1054.44 258.368 1063.39 270.145C1072.33 281.813 1085.47 287.647 1102.81 287.647C1117.64 287.647 1132.96 284.43 1148.77 277.997V302.041C1136.56 308.257 1121.45 311.364 1103.46 311.364Z" fill="#EAEAEA"/>
<path d="M1220.25 128.823H1272.26V149.923H1220.25V255.424C1220.25 266.111 1222.76 274.398 1227.77 280.287C1232.9 286.066 1239.88 288.956 1248.71 288.956C1257.54 288.956 1265.83 287.865 1273.57 285.684V306.621C1270.95 307.929 1266.7 309.02 1260.81 309.892C1254.92 310.874 1249.69 311.364 1245.11 311.364C1210.43 311.364 1193.09 293.099 1193.09 256.569V149.923H1167.41V136.838L1193.09 125.551L1204.54 87.2766H1220.25V128.823Z" fill="#EAEAEA"/>
<path d="M1457.58 308.093H1435.18L1431.25 284.049H1429.78C1424.22 292.881 1416.53 299.642 1406.71 304.331C1396.9 309.02 1385.61 311.364 1372.86 311.364C1350.72 311.364 1334.31 306.185 1323.62 295.825C1312.94 285.357 1307.59 268.782 1307.59 246.101V128.823H1335.07V245.119C1335.07 259.841 1338.4 270.8 1345.05 277.997C1351.81 285.085 1362.22 288.628 1376.29 288.628C1395.05 288.628 1408.73 283.503 1417.35 273.253C1426.07 262.894 1430.43 246.155 1430.43 223.038V128.823H1457.58V308.093Z" fill="#EAEAEA"/>
<path d="M1560.63 288.956C1590.07 288.956 1604.79 279.796 1604.79 261.476C1604.79 254.497 1601.74 248.554 1595.64 243.647C1589.64 238.631 1577.86 232.743 1560.3 225.982C1543.51 219.766 1531.57 214.314 1524.48 209.625C1517.5 204.936 1512.32 199.702 1508.94 193.923C1505.56 188.143 1503.87 181.11 1503.87 172.823C1503.87 158.32 1509.82 146.815 1521.7 138.31C1533.59 129.804 1549.51 125.551 1569.46 125.551C1589.42 125.551 1608.67 129.477 1627.2 137.328L1617.55 159.41C1599.67 152.104 1583.86 148.451 1570.12 148.451C1556.49 148.451 1546.35 150.414 1539.7 154.339C1533.04 158.265 1529.72 163.826 1529.72 171.023C1529.72 175.821 1530.92 179.91 1533.32 183.291C1535.71 186.671 1539.64 189.888 1545.09 192.941C1550.55 195.995 1561.07 200.411 1576.66 206.19C1597.93 213.933 1612.26 221.729 1619.68 229.581C1627.2 237.432 1630.97 247.3 1630.97 259.186C1630.97 275.87 1624.7 288.738 1612.16 297.788C1599.72 306.839 1581.95 311.364 1558.83 311.364C1535.82 311.364 1517.67 307.602 1504.36 300.078V274.889C1522.9 284.267 1541.66 288.956 1560.63 288.956Z" fill="#EAEAEA"/>
<path d="M497.016 382.838C507.751 377.801 518.426 375.282 529.041 375.282C539.716 375.282 547.692 378.101 552.97 383.738C558.247 389.315 560.886 397.981 560.886 409.736V474.776H554.319L552.07 459.303H551.35C546.373 465.66 541.305 470.128 536.148 472.707C531.05 475.285 524.933 476.575 517.796 476.575C508.201 476.575 500.704 474.146 495.307 469.288C489.969 464.37 487.3 457.354 487.3 448.238C487.3 439.062 491.288 431.836 499.265 426.558C507.241 421.28 518.756 418.492 533.809 418.192L552.43 417.652V411.175C552.43 401.7 550.511 394.653 546.673 390.035C542.834 385.357 536.627 383.018 528.051 383.018C519.475 383.018 510.24 385.537 500.344 390.575L497.016 382.838ZM496.836 449.137C496.836 455.255 498.695 460.022 502.413 463.441C506.191 466.799 511.499 468.478 518.336 468.478C528.771 468.478 536.987 465.48 542.984 459.483C549.042 453.485 552.07 445.209 552.07 434.654V425.029L534.978 425.748C521.244 426.408 511.439 428.567 505.562 432.225C499.744 435.824 496.836 441.461 496.836 449.137Z" fill="#EAEAEA"/>
<path d="M668.566 474.776H661.009L659.39 461.282H658.85C652.433 471.477 641.129 476.575 624.936 476.575C602.687 476.575 591.562 464.67 591.562 440.861V376.991H600.378V440.322C600.378 450.097 602.417 457.234 606.495 461.732C610.633 466.23 617.08 468.478 625.836 468.478C637.41 468.478 645.956 465.54 651.474 459.663C656.991 453.785 659.75 444.22 659.75 430.966V376.991H668.566V474.776Z" fill="#EAEAEA"/>
<path d="M778.135 474.776H772.198L770.039 459.843H769.319C761.882 470.997 751.297 476.575 737.564 476.575C723.89 476.575 713.485 472.377 706.348 463.981C699.212 455.525 695.643 443.08 695.643 426.648C695.643 410.156 699.182 397.442 706.258 388.506C713.335 379.57 723.62 375.102 737.114 375.102C744.311 375.102 750.458 376.421 755.555 379.06C760.713 381.699 765.301 386.077 769.319 392.194H769.859C769.499 384.638 769.319 377.231 769.319 369.974V334.801H778.135V474.776ZM769.319 427.278V425.748C769.319 410.575 766.77 399.691 761.672 393.094C756.575 386.497 748.539 383.198 737.564 383.198C726.649 383.198 718.493 386.946 713.095 394.443C707.698 401.88 704.999 412.764 704.999 427.098C704.999 454.805 715.764 468.658 737.294 468.658C748.329 468.658 756.425 465.45 761.582 459.033C766.74 452.616 769.319 442.031 769.319 427.278Z" fill="#EAEAEA"/>
<path d="M815.467 341.188C817.326 341.188 818.766 341.937 819.785 343.437C820.865 344.936 821.405 347.065 821.405 349.824C821.405 352.523 820.865 354.652 819.785 356.211C818.766 357.77 817.326 358.55 815.467 358.55C811.689 358.55 809.8 355.671 809.8 349.914C809.8 344.096 811.689 341.188 815.467 341.188ZM819.965 474.776H811.059V376.991H819.965V474.776Z" fill="#EAEAEA"/>
<path d="M862.246 376.991H890.942V384.728H862.246V446.619C862.246 454.115 863.565 459.663 866.204 463.261C868.842 466.859 873.011 468.658 878.708 468.658C884.405 468.658 889.293 468.179 893.371 467.219V474.416C889.053 475.855 884.075 476.575 878.438 476.575C869.802 476.575 863.415 474.266 859.277 469.648C855.199 465.03 853.16 457.773 853.16 447.878V384.728H838.677V379.51L853.16 375.462L857.658 353.332H862.246V376.991Z" fill="#EAEAEA"/>
<path d="M908.754 425.748C908.754 409.856 912.622 397.442 920.358 388.506C928.095 379.57 938.68 375.102 952.114 375.102C965.607 375.102 976.162 379.63 983.779 388.686C991.455 397.741 995.294 410.186 995.294 426.018C995.294 441.791 991.425 454.175 983.689 463.171C975.953 472.107 965.278 476.575 951.664 476.575C951.364 476.575 951.034 476.575 950.674 476.575C938.26 476.575 928.155 471.987 920.358 462.811C912.622 453.635 908.754 441.731 908.754 427.098C908.754 426.618 908.754 426.168 908.754 425.748ZM952.024 468.478C962.819 468.478 971.155 464.73 977.032 457.234C982.909 449.737 985.848 439.242 985.848 425.748C985.848 412.195 982.849 401.73 976.852 394.353C970.915 386.916 962.549 383.198 951.754 383.198C941.019 383.198 932.713 386.916 926.835 394.353C921.018 401.73 918.11 412.165 918.11 425.658C918.11 439.092 921.048 449.617 926.925 457.234C932.863 464.73 941.229 468.478 952.024 468.478Z" fill="#EAEAEA"/>
<path d="M1060.96 375.102C1064.92 375.102 1069.36 375.522 1074.28 376.361L1072.57 384.997C1068.55 383.918 1064.32 383.378 1059.88 383.378C1051.55 383.378 1044.71 386.946 1039.37 394.083C1034.04 401.16 1031.37 410.066 1031.37 420.801V474.776H1022.46V376.991H1030.02L1030.92 394.623H1031.55C1035.68 387.306 1039.97 382.269 1044.41 379.51C1048.97 376.571 1054.49 375.102 1060.96 375.102Z" fill="#EAEAEA"/>
<path d="M1133.74 476.575C1119.59 476.575 1108.49 472.197 1100.45 463.441C1092.54 454.685 1088.58 442.481 1088.58 426.828C1088.58 411.175 1092.39 398.641 1100 389.225C1107.68 379.81 1118.06 375.102 1131.13 375.102C1142.64 375.102 1151.73 379.15 1158.39 387.246C1165.04 395.283 1168.37 406.168 1168.37 419.901V427.098H1097.94C1098.06 440.532 1101.17 450.787 1107.29 457.863C1113.47 464.94 1122.28 468.478 1133.74 468.478C1139.44 468.478 1144.44 468.059 1148.76 467.219C1153.08 466.379 1158.33 464.73 1164.5 462.271V470.368C1159.05 472.766 1153.95 474.386 1149.21 475.225C1144.53 476.125 1139.38 476.575 1133.74 476.575ZM1158.93 419.181C1158.93 407.847 1156.44 399.001 1151.46 392.644C1146.48 386.227 1139.47 383.018 1130.41 383.018C1121.41 383.018 1114.07 386.137 1108.37 392.374C1102.73 398.611 1099.44 407.547 1098.48 419.181H1158.93Z" fill="#EAEAEA"/>
<path d="M1186.54 460.922C1196.14 465.84 1206.1 468.299 1216.41 468.299C1226.73 468.299 1234.43 466.739 1239.53 463.621C1244.63 460.442 1247.18 456.244 1247.18 451.027C1247.18 445.809 1245.17 441.551 1241.15 438.253C1237.13 434.894 1230.44 431.566 1221.09 428.267C1211.73 424.909 1205.02 421.91 1200.94 419.271C1196.86 416.633 1193.83 413.694 1191.85 410.456C1189.93 407.217 1188.97 403.349 1188.97 398.851C1188.97 391.594 1192.03 385.807 1198.15 381.489C1204.39 377.231 1212.87 375.102 1223.61 375.102C1234.4 375.102 1244.54 377.081 1254.01 381.039L1250.68 389.135C1240.85 385.177 1231.94 383.198 1223.97 383.198C1215.99 383.198 1209.66 384.518 1204.99 387.156C1200.31 389.795 1197.97 393.573 1197.97 398.491C1197.97 403.349 1199.77 407.307 1203.37 410.366C1207.02 413.424 1213.68 416.693 1223.34 420.171C1232.99 423.589 1239.86 426.618 1243.94 429.257C1251.97 434.294 1255.99 441.101 1255.99 449.677C1255.99 458.193 1252.66 464.82 1246.01 469.558C1239.35 474.236 1229.66 476.575 1216.95 476.575C1204.3 476.575 1194.16 474.566 1186.54 470.548V460.922Z" fill="#EAEAEA"/>
</svg>
